<svg width="26" height="25" viewBox="0 0 26 25" fill="none" stroke="currentColor" xmlns="http://www.w3.org/2000/svg">
<path d="M15.4853 7.47204C15.1818 6.77625 14.7378 6.15068 14.1811 5.63455C13.6245 5.11843 12.9672 4.7229 12.2505 4.47277C11.5338 4.22263 10.7731 4.12329 10.0162 4.18097C9.2593 4.23865 8.52248 4.45211 7.85195 4.80797C7.18143 5.16382 6.59166 5.65439 6.11966 6.2489C5.64765 6.84341 5.30358 7.52904 5.10902 8.26279C4.91447 8.99654 4.87363 9.76258 4.98907 10.5128C5.10451 11.2631 5.37373 11.9814 5.77986 12.6228L4.92599 15.1844L7.48759 14.3305C7.7241 14.4803 7.97199 14.6122 8.23128 14.726M17.0454 21.7949C15.8231 21.7948 14.6356 21.3881 13.6698 20.6389C12.704 19.8898 12.0148 18.8407 11.7106 17.6568C11.4065 16.473 11.5047 15.2216 11.9898 14.0997C12.475 12.9778 13.3194 12.0491 14.3903 11.4598C15.4611 10.8705 16.6976 10.6541 17.9049 10.8447C19.1123 11.0352 20.222 11.6219 21.0593 12.5123C21.8966 13.4027 22.414 14.5463 22.5301 15.7631C22.6461 16.9799 22.3542 18.2007 21.7003 19.2333L22.5542 21.7949L19.9926 20.9411C19.1109 21.4991 18.0888 21.7952 17.0454 21.7949Z" stroke="#E7E7E7" stroke-opacity="0.5" stroke-width="1.5" stroke-linecap="round" stroke-linejoin="round"/>
</svg>
