<svg width="25" height="25" viewBox="0 0 25 25" fill="none" stroke="currentColor" xmlns="http://www.w3.org/2000/svg">
<path d="M13.4858 4.99609V4.99707L13.4907 5L19.4907 9.5L19.4976 9.50488C19.6493 9.61625 19.768 9.75715 19.8579 9.93652C19.9473 10.115 19.9911 10.2989 19.9907 10.498V19.5C19.9907 19.8493 19.8752 20.1302 19.6226 20.3828C19.37 20.6354 19.0897 20.7504 18.7417 20.75H15.7407C15.6467 20.75 15.6037 20.7264 15.5601 20.6826C15.5262 20.6487 15.5045 20.6149 15.4956 20.5605L15.4907 20.498V15.5C15.4907 15.0274 15.3221 14.5958 14.9819 14.2568C14.6857 13.9616 14.3198 13.7954 13.9175 13.7578L13.7427 13.75H11.7407C11.2681 13.75 10.8366 13.9186 10.4976 14.2588C10.1601 14.5974 9.99188 15.0271 9.99072 15.498V20.5C9.99072 20.5941 9.96703 20.6379 9.92236 20.6826C9.88891 20.7161 9.85639 20.7376 9.80322 20.7461L9.74268 20.75H6.74072C6.39103 20.75 6.11055 20.6345 5.85889 20.3828C5.63877 20.1627 5.52263 19.92 5.49658 19.6279L5.49072 19.499V10.5C5.49072 10.3002 5.53483 10.1156 5.62451 9.93652C5.7147 9.75657 5.83343 9.61525 5.98486 9.50391L5.99072 9.5L11.9907 5L11.9956 4.99609C12.2117 4.83159 12.4511 4.75 12.7407 4.75C13.0303 4.75 13.2697 4.83159 13.4858 4.99609Z" stroke="#E7E7E7" stroke-opacity="0.5" stroke-width="1.5"/>
</svg>
