<svg viewBox="-0.5 -0.5 16 16" fill="none" xmlns="http://www.w3.org/2000/svg" id="Home--Streamline-Solar-Ar" height="16" width="16"><desc>Home Streamline Icon: https://streamlinehq.com</desc><path d="M1.25 7.627437500000001c0 -1.4302562499999998 0 -2.1453875 0.3245 -2.7382250000000004 0.3245 -0.59283125 0.9173437500000001 -0.9607687500000001 2.10301875 -1.69663125l1.25 -0.7757875000000001C6.18086875 1.63893125 6.8075624999999995 1.25 7.5 1.25c0.6924375 0 1.3191249999999999 0.38893125 2.5725 1.16679375l1.25 0.77578125c1.1856875 0.73586875 1.7785000000000002 1.1038062499999999 2.1029999999999998 1.6966375C13.75 5.482050000000001 13.75 6.19718125 13.75 7.627437500000001v0.9506874999999999c0 2.4379999999999997 0 3.6570625000000003 -0.73225 4.4144375C12.285562500000001 13.75 11.107 13.75 8.75 13.75h-2.5c-2.357025 0 -3.53553125 0 -4.26776875 -0.7574375C1.25 12.2351875 1.25 11.016125 1.25 8.578125v-0.9506874999999999Z" stroke="currentColor" stroke-width="1.3"></path><path d="M9.375 11.25H5.625" stroke="currentColor" stroke-linecap="round" stroke-width="1.3"></path></svg>