<svg viewBox="-0.5 -0.5 16 16" fill="none" xmlns="http://www.w3.org/2000/svg" id="Smile-Circle--Streamline-Solar-Ar" height="16" width="16"><desc>Smile Circle Streamline Icon: https://streamlinehq.com</desc><path stroke="currentColor" d="M1.25 7.5a6.25 6.25 0 1 0 12.5 0 6.25 6.25 0 1 0 -12.5 0" stroke-width="1.3"></path><path d="M5.625 10c0.5314875 0.3939375 1.177875 0.625 1.875 0.625s1.3435 -0.23106249999999998 1.875 -0.625" stroke="currentColor" stroke-linecap="round" stroke-width="1.3"></path><path d="M10 6.5625c0 0.51775 -0.2798125 0.9375 -0.625 0.9375s-0.625 -0.41974999999999996 -0.625 -0.9375c0 -0.51776875 0.2798125 -0.9375 0.625 -0.9375s0.625 0.41973125 0.625 0.9375Z" fill="currentColor" stroke-width="1.3"></path><path fill="currentColor" d="M5 6.5625a0.625 0.9375 0 1 0 1.25 0 0.625 0.9375 0 1 0 -1.25 0" stroke-width="1.3"></path></svg>