<svg width="25" height="24" viewBox="0 0 25 24" fill="none" xmlns="http://www.w3.org/2000/svg">
<path fill-rule="evenodd" clip-rule="evenodd" d="M17.8501 14.5C15.1001 14.5 15.1001 14.708 15.1001 17.25V17.275C15.1001 18.382 15.1001 19.182 15.3711 19.52C15.6361 19.848 16.4231 20 17.8501 20C19.2771 20 20.0641 19.847 20.3291 19.519C20.6001 19.182 20.6001 18.382 20.6001 17.274C20.6001 14.708 20.6001 14.5 17.8501 14.5ZM17.8501 21.5C16.1641 21.5 14.8991 21.323 14.2041 20.46C13.6001 19.711 13.6001 18.689 13.6001 17.275L14.3501 17.25H13.6001C13.6001 14.38 13.7811 13 17.8501 13C21.9191 13 22.1001 14.38 22.1001 17.25C22.1001 18.688 22.1001 19.711 21.4961 20.46C20.8011 21.323 19.5361 21.5 17.8501 21.5Z" fill="#9E9E9E"/>
<path fill-rule="evenodd" clip-rule="evenodd" d="M6.8501 14.5C4.1001 14.5 4.1001 14.708 4.1001 17.25V17.275C4.1001 18.382 4.1001 19.182 4.3711 19.52C4.6361 19.848 5.4231 20 6.8501 20C8.2771 20 9.0641 19.847 9.3291 19.519C9.6001 19.182 9.6001 18.382 9.6001 17.274C9.6001 14.708 9.6001 14.5 6.8501 14.5ZM6.8501 21.5C5.1641 21.5 3.8991 21.323 3.2041 20.46C2.6001 19.711 2.6001 18.689 2.6001 17.275L3.3501 17.25H2.6001C2.6001 14.38 2.7811 13 6.8501 13C10.9191 13 11.1001 14.38 11.1001 17.25C11.1001 18.688 11.1001 19.711 10.4961 20.46C9.8011 21.323 8.5361 21.5 6.8501 21.5Z" fill="#9E9E9E"/>
<path fill-rule="evenodd" clip-rule="evenodd" d="M17.8501 3.5C15.1001 3.5 15.1001 3.708 15.1001 6.25V6.275C15.1001 7.382 15.1001 8.182 15.3711 8.52C15.6361 8.848 16.4231 9 17.8501 9C19.2771 9 20.0641 8.847 20.3291 8.519C20.6001 8.182 20.6001 7.382 20.6001 6.274C20.6001 3.708 20.6001 3.5 17.8501 3.5ZM17.8501 10.5C16.1641 10.5 14.8991 10.323 14.2041 9.46C13.6001 8.711 13.6001 7.689 13.6001 6.275L14.3501 6.25H13.6001C13.6001 3.38 13.7811 2 17.8501 2C21.9191 2 22.1001 3.38 22.1001 6.25C22.1001 7.688 22.1001 8.711 21.4961 9.46C20.8011 10.323 19.5361 10.5 17.8501 10.5Z" fill="#9E9E9E"/>
<path fill-rule="evenodd" clip-rule="evenodd" d="M6.8501 3.5C4.1001 3.5 4.1001 3.708 4.1001 6.25V6.275C4.1001 7.382 4.1001 8.182 4.3711 8.52C4.6361 8.848 5.4231 9 6.8501 9C8.2771 9 9.0641 8.847 9.3291 8.519C9.6001 8.182 9.6001 7.382 9.6001 6.274C9.6001 3.708 9.6001 3.5 6.8501 3.5ZM6.8501 10.5C5.1641 10.5 3.8991 10.323 3.2041 9.46C2.6001 8.711 2.6001 7.689 2.6001 6.275L3.3501 6.25H2.6001C2.6001 3.38 2.7811 2 6.8501 2C10.9191 2 11.1001 3.38 11.1001 6.25C11.1001 7.688 11.1001 8.711 10.4961 9.46C9.8011 10.323 8.5361 10.5 6.8501 10.5Z" fill="#9E9E9E"/>
</svg>
