<svg viewBox="-0.5 -0.5 16 16" fill="none" xmlns="http://www.w3.org/2000/svg" id="Graph-New--Streamline-Solar-Ar" height="16" width="16"><desc>Graph New Streamline Icon: https://streamlinehq.com</desc><path d="M13.75 6.5625V7.5c0 2.94625 0 4.4194375 -0.9153125 5.3346875C11.9194375 13.75 10.44625 13.75 7.5 13.75c-2.94628125 0 -4.41941875 0 -5.33470625 -0.9153125C1.25 11.9194375 1.25 10.44625 1.25 7.5c0 -2.94628125 0 -4.41941875 0.91529375 -5.33470625C3.0805812500000003 1.25 4.55371875 1.25 7.5 1.25h0.9375" stroke="currentColor" stroke-linecap="round" stroke-width="1.3"></path><path d="m4.375 8.75 1.12305625 -1.3476875c0.44503125 -0.534 0.6675437500000001 -0.8010625 0.96025625 -0.8010625 0.29275 0 0.51525 0.2670625 0.9603125 0.8010625l0.16275 0.195375c0.44506249999999997 0.534 0.6675625000000001 0.8010625 0.9603125 0.8010625 0.2926875 0 0.51525 -0.2670625 0.96025 -0.8010625L10.625 6.25" stroke="currentColor" stroke-linecap="round" stroke-width="1.3"></path><path stroke="currentColor" d="M10 3.125a1.875 1.875 0 1 0 3.75 0 1.875 1.875 0 1 0 -3.75 0" stroke-width="1.3"></path></svg>