<svg width="824" height="157" viewBox="0 0 824 157" fill="none" xmlns="http://www.w3.org/2000/svg">
<path d="M165.696 152.581V2.41872H196.105L252.666 76.9961H238.475L293.414 2.41872H323.823V152.581H292.401V36.8856L304.97 39.7074L246.787 114.285H242.732L186.577 39.7074L197.119 36.8856V152.581H165.696Z" fill="white"/>
<path d="M410.612 155C398.719 155 388.109 152.514 378.784 147.542C369.459 142.57 362.093 135.785 356.687 127.185C351.416 118.45 348.781 108.574 348.781 97.5553V2.41872H380.203V95.5397C380.203 101.452 381.487 106.827 384.055 111.664C386.758 116.368 390.407 120.063 395.002 122.75C399.597 125.438 404.8 126.782 410.612 126.782C416.559 126.782 421.762 125.438 426.222 122.75C430.817 120.063 434.398 116.368 436.966 111.664C439.669 106.827 441.021 101.452 441.021 95.5397V2.41872H472.443V97.5553C472.443 108.574 469.74 118.45 464.334 127.185C459.063 135.785 451.765 142.57 442.44 147.542C433.115 152.514 422.505 155 410.612 155Z" fill="white"/>
<path d="M552.243 155C542.782 155 533.862 153.32 525.483 149.961C517.239 146.467 510.076 141.563 503.994 135.247C498.047 128.932 493.588 121.474 490.614 112.874L516.36 101.385C520.144 109.582 525.348 116.032 531.97 120.735C538.728 125.438 546.161 127.789 554.27 127.789C558.595 127.789 562.311 127.117 565.42 125.774C568.528 124.43 570.961 122.616 572.718 120.332C574.475 117.913 575.353 115.091 575.353 111.866C575.353 108.372 574.272 105.416 572.11 102.997C569.947 100.444 566.569 98.4287 561.974 96.9506L532.376 87.2757C520.347 83.3788 511.292 77.8695 505.21 70.7477C499.129 63.4915 496.088 54.8245 496.088 44.7464C496.088 35.8778 498.25 28.0841 502.575 21.3654C507.035 14.6467 513.184 9.40615 521.023 5.64369C528.997 1.88123 538.119 0 548.391 0C557.446 0 565.825 1.5453 573.529 4.63589C581.232 7.72649 587.855 12.0936 593.396 17.7373C599.072 23.381 603.33 30.1669 606.168 38.0949L580.624 49.5839C577.786 42.5964 573.529 37.1543 567.852 33.2575C562.176 29.2263 555.689 27.2107 548.391 27.2107C544.201 27.2107 540.484 27.8825 537.241 29.2263C533.997 30.57 531.497 32.5184 529.74 35.0715C527.983 37.4903 527.105 40.3121 527.105 43.5371C527.105 47.0308 528.253 50.1214 530.551 52.8088C532.849 55.3619 536.295 57.3775 540.89 58.8557L569.88 68.1274C582.043 72.0243 591.098 77.4664 597.045 84.4538C603.127 91.4413 606.168 99.974 606.168 110.052C606.168 118.786 603.87 126.58 599.275 133.433C594.68 140.152 588.328 145.459 580.219 149.356C572.245 153.119 562.92 155 552.243 155Z" fill="white"/>
<path d="M628.561 152.581V2.41872H659.984V152.581H628.561Z" fill="white"/>
<path d="M758.531 155C747.719 155 737.65 153.052 728.324 149.155C719.134 145.258 711.093 139.816 704.2 132.828C697.307 125.841 691.901 117.644 687.982 108.238C684.198 98.8318 682.306 88.5522 682.306 77.3992C682.306 66.2462 684.198 55.9666 687.982 46.5605C691.766 37.0199 697.105 28.8232 703.997 21.9701C710.89 14.9827 718.931 9.60771 728.122 5.84525C737.447 1.94842 747.583 0 758.531 0C769.478 0 779.276 1.81404 787.926 5.44213C796.711 9.07022 804.144 13.9077 810.226 19.9545C816.307 26.0013 820.632 32.72 823.2 40.1105L795.427 53.4135C792.859 46.1573 788.331 40.1777 781.844 35.4746C775.492 30.6372 767.721 28.2185 758.531 28.2185C749.611 28.2185 741.772 30.3013 735.014 34.4668C728.257 38.6324 722.986 44.4105 719.202 51.801C715.553 59.0572 713.728 67.5899 713.728 77.3992C713.728 87.2085 715.553 95.8084 719.202 103.199C722.986 110.59 728.257 116.368 735.014 120.533C741.772 124.699 749.611 126.782 758.531 126.782C767.721 126.782 775.492 124.43 781.844 119.727C788.331 114.889 792.859 108.843 795.427 101.586L823.2 114.889C820.632 122.28 816.307 128.999 810.226 135.046C804.144 141.092 796.711 145.93 787.926 149.558C779.276 153.186 769.478 155 758.531 155Z" fill="white"/>
<path d="M111.065 68.1274C100.569 68.1274 92.0598 59.6673 92.0598 49.2311C92.0598 38.795 100.569 30.3349 111.065 30.3349C121.562 30.3349 130.071 38.795 130.071 49.2311C130.071 59.6673 121.562 68.1274 111.065 68.1274Z" fill="white"/>
<path d="M51.5435 62.1814C44.5458 62.1814 38.8731 49.5839 38.8731 49.5839C38.8731 42.6264 44.5458 36.9863 51.5435 36.9863C58.5412 36.9863 64.2139 42.6264 64.2139 49.5839C64.2139 56.5413 58.5412 62.1814 51.5435 62.1814Z" fill="white"/>
<path d="M7.0106 55.8826C3.51177 55.8826 0.675399 53.0626 0.675399 49.5839C0.675399 46.1052 3.51177 43.2851 7.0106 43.2851C10.5094 43.2851 13.3458 46.1052 13.3458 49.5839C13.3458 53.0626 10.5094 55.8826 7.0106 55.8826Z" fill="white"/>
<path d="M34.24 141.36C33.6533 141.36 33.12 141.333 32.64 141.28C32.16 141.227 31.8667 141.2 31.76 141.2C31.8133 141.307 31.8667 141.627 31.92 142.16C32.0267 142.747 32.08 143.387 32.08 144.08V155.52L23.68 156.96V143.84C23.68 143.413 23.68 142.907 23.68 142.32C23.7333 141.787 23.76 141.44 23.76 141.28C23.6 141.28 23.2267 141.307 22.64 141.36C22.0533 141.36 21.44 141.36 20.8 141.36H0V135.12L16.4 100.16H25.6L12.8 127.52C11.8933 129.547 11.0933 131.12 10.4 132.24C9.70667 133.307 9.28 133.973 9.12 134.24C9.28 134.187 9.6 134.133 10.08 134.08C10.6133 134.027 11.12 134 11.6 134H21.2C21.6267 134 22.1333 134.027 22.72 134.08C23.36 134.08 23.7867 134.08 24 134.08C23.8933 133.44 23.84 132.773 23.84 132.08C23.84 131.387 23.84 130.533 23.84 129.52C23.8933 128.507 23.9733 127.333 24.08 126C24.24 124.613 24.4 122.96 24.56 121.04L25.2 114L32.08 112.32V127.12C32.08 128.933 32.0533 130.48 32 131.76C31.9467 133.04 31.8933 133.813 31.84 134.08C32 134.08 32.3733 134.08 32.96 134.08C33.5467 134.027 34.08 134 34.56 134H38V141.36H34.24Z" fill="white"/>
<path d="M77.0338 142H44.9538V134.16L54.4738 128C58.8471 125.173 62.0471 122.72 64.0738 120.64C66.1538 118.507 67.1938 116.24 67.1938 113.84C67.1938 111.813 66.5271 110.293 65.1938 109.28C63.8604 108.267 62.0738 107.76 59.8338 107.76C58.6071 107.76 57.4071 107.947 56.2338 108.32C55.0604 108.693 53.9671 109.147 52.9538 109.68C51.9404 110.213 51.0338 110.773 50.2338 111.36C49.4338 111.947 48.7938 112.427 48.3138 112.8L43.5938 107.68C46.4738 105.12 49.3804 103.2 52.3138 101.92C55.2471 100.64 58.5538 100 62.2338 100C64.4738 100 66.5004 100.293 68.3138 100.88C70.1804 101.467 71.7804 102.32 73.1138 103.44C74.4471 104.507 75.4604 105.813 76.1538 107.36C76.9004 108.853 77.2738 110.56 77.2738 112.48C77.2738 115.947 75.8604 119.253 73.0338 122.4C70.2071 125.493 65.9138 128.8 60.1538 132.32L55.6738 135.04C56.0471 134.987 56.9804 134.933 58.4738 134.88C59.9671 134.773 61.7271 134.72 63.7538 134.72H78.8738L77.0338 142Z" fill="white"/>
<path d="M123.798 121.84C123.798 125.04 123.344 127.947 122.438 130.56C121.584 133.173 120.331 135.413 118.678 137.28C117.078 139.093 115.131 140.507 112.838 141.52C110.598 142.533 108.091 143.04 105.318 143.04C102.438 143.04 99.8508 142.56 97.5575 141.6C95.2642 140.587 93.3175 139.173 91.7175 137.36C90.1708 135.493 88.9708 133.253 88.1175 130.64C87.2642 128.027 86.8375 125.093 86.8375 121.84C86.8375 118.587 87.2642 115.653 88.1175 113.04C89.0242 110.427 90.2775 108.213 91.8775 106.4C93.5308 104.533 95.4775 103.093 97.7175 102.08C100.011 101.067 102.544 100.56 105.318 100.56C108.198 100.56 110.784 101.067 113.078 102.08C115.371 103.093 117.291 104.533 118.838 106.4C120.438 108.213 121.664 110.427 122.518 113.04C123.371 115.653 123.798 118.587 123.798 121.84ZM114.198 122.4C114.198 119.467 113.984 117.013 113.558 115.04C113.184 113.067 112.598 111.493 111.798 110.32C111.051 109.147 110.118 108.32 108.998 107.84C107.931 107.36 106.678 107.12 105.238 107.12C102.144 107.12 99.9042 108.347 98.5175 110.8C97.1308 113.253 96.4375 116.747 96.4375 121.28C96.4375 124.213 96.6242 126.667 96.9975 128.64C97.4242 130.56 98.0108 132.107 98.7575 133.28C99.5575 134.453 100.491 135.28 101.558 135.76C102.678 136.24 103.958 136.48 105.398 136.48C108.491 136.48 110.731 135.28 112.118 132.88C113.504 130.427 114.198 126.933 114.198 122.4Z" fill="white"/>
</svg>
