<svg width="198" height="39" viewBox="0 0 198 39" fill="none" xmlns="http://www.w3.org/2000/svg">
<path d="M39.8541 37.912V0.600981H47.1682L60.7724 19.1313H57.3592L70.5733 0.600981H77.8874V37.912H70.3296V9.16499L73.3527 9.86614L59.3584 28.3964H58.3832L44.8764 9.86614L47.412 9.16499V37.912H39.8541Z" fill="black"/>
<path d="M98.7623 38.513C95.9017 38.513 93.3499 37.8953 91.1069 36.66C88.8639 35.4246 87.0923 33.7385 85.792 31.6017C84.5242 29.4315 83.8903 26.9775 83.8903 24.2396V0.600981H91.4482V23.7388C91.4482 25.2079 91.7571 26.5434 92.3747 27.7454C93.0248 28.914 93.9025 29.8321 95.0078 30.4999C96.113 31.1676 97.3645 31.5015 98.7623 31.5015C100.193 31.5015 101.444 31.1676 102.517 30.4999C103.622 29.8321 104.484 28.914 105.101 27.7454C105.751 26.5434 106.076 25.2079 106.076 23.7388V0.600981H113.634V24.2396C113.634 26.9775 112.984 29.4315 111.684 31.6017C110.416 33.7385 108.661 35.4246 106.418 36.66C104.175 37.8953 101.623 38.513 98.7623 38.513Z" fill="black"/>
<path d="M132.828 38.513C130.553 38.513 128.407 38.0956 126.392 37.2609C124.409 36.3929 122.686 35.1742 121.223 33.605C119.793 32.0357 118.72 30.1827 118.005 28.0459L124.197 25.1912C125.108 27.2279 126.359 28.8305 127.952 29.9991C129.577 31.1676 131.365 31.7519 133.316 31.7519C134.356 31.7519 135.25 31.585 135.997 31.2511C136.745 30.9172 137.33 30.4665 137.753 29.8989C138.175 29.2979 138.387 28.5968 138.387 27.7955C138.387 26.9274 138.127 26.1928 137.607 25.5919C137.086 24.9575 136.274 24.4567 135.169 24.0894L128.049 21.6855C125.156 20.7172 122.978 19.3483 121.516 17.5788C120.053 15.7758 119.321 13.6223 119.321 11.1182C119.321 8.91458 119.841 6.97808 120.882 5.30868C121.954 3.63929 123.433 2.33716 125.319 1.40229C127.237 0.467431 129.431 0 131.902 0C134.08 0 136.095 0.383961 137.948 1.15188C139.801 1.91981 141.394 3.00492 142.726 4.40721C144.092 5.8095 145.116 7.49559 145.798 9.46548L139.654 12.3202C138.972 10.584 137.948 9.23177 136.583 8.26352C135.217 7.26188 133.657 6.76106 131.902 6.76106C130.894 6.76106 130 6.928 129.22 7.26188C128.44 7.59576 127.838 8.07988 127.416 8.71425C126.993 9.31524 126.782 10.0164 126.782 10.8177C126.782 11.6858 127.058 12.4537 127.611 13.1215C128.163 13.7558 128.992 14.2567 130.097 14.6239L137.07 16.9277C139.996 17.8959 142.174 19.2482 143.604 20.9843C145.067 22.7205 145.798 24.8406 145.798 27.3447C145.798 29.5149 145.246 31.4514 144.14 33.1542C143.035 34.8236 141.507 36.1425 139.557 37.1107C137.639 38.0456 135.396 38.513 132.828 38.513Z" fill="black"/>
<path d="M151.184 37.912V0.600981H158.742V37.912H151.184Z" fill="black"/>
<path d="M182.445 38.513C179.845 38.513 177.423 38.0289 175.18 37.0606C172.97 36.0924 171.035 34.7402 169.378 33.004C167.72 31.2678 166.419 29.2311 165.477 26.894C164.566 24.5568 164.111 22.0027 164.111 19.2315C164.111 16.4603 164.566 13.9061 165.477 11.5689C166.387 9.19838 167.671 7.16172 169.329 5.45893C170.987 3.72276 172.921 2.38724 175.131 1.45237C177.374 0.484125 179.812 0 182.445 0C185.078 0 187.435 0.450737 189.516 1.35221C191.629 2.25369 193.416 3.45565 194.879 4.95811C196.342 6.46057 197.382 8.12996 198 9.9663L191.32 13.2717C190.702 11.4688 189.613 9.983 188.053 8.81442C186.525 7.61245 184.656 7.01147 182.445 7.01147C180.3 7.01147 178.414 7.52898 176.789 8.56401C175.164 9.59903 173.896 11.0347 172.986 12.8711C172.108 14.674 171.669 16.7941 171.669 19.2315C171.669 21.6688 172.108 23.8056 172.986 25.6419C173.896 27.4783 175.164 28.914 176.789 29.949C178.414 30.984 180.3 31.5015 182.445 31.5015C184.656 31.5015 186.525 30.9172 188.053 29.7487C189.613 28.5467 190.702 27.0442 191.32 25.2413L198 28.5467C197.382 30.383 196.342 32.0524 194.879 33.5549C193.416 35.0573 191.629 36.2593 189.516 37.1608C187.435 38.0623 185.078 38.513 182.445 38.513Z" fill="black"/>
<path d="M26.714 16.9277C24.1893 16.9277 22.1427 14.8256 22.1427 12.2325C22.1427 9.63943 24.1893 7.53733 26.714 7.53733C29.2386 7.53733 31.2853 9.63943 31.2853 12.2325C31.2853 14.8256 29.2386 16.9277 26.714 16.9277Z" fill="black"/>
<path d="M12.3975 15.4503C10.7144 15.4503 9.34994 12.3202 9.34994 12.3202C9.34994 10.5914 10.7144 9.19003 12.3975 9.19003C14.0806 9.19003 15.445 10.5914 15.445 12.3202C15.445 14.0489 14.0806 15.4503 12.3975 15.4503Z" fill="black"/>
<path d="M1.68622 13.8852C0.844667 13.8852 0.16245 13.1845 0.16245 12.3202C0.16245 11.4558 0.844667 10.7551 1.68622 10.7551C2.52778 10.7551 3.20999 11.4558 3.20999 12.3202C3.20999 13.1845 2.52778 13.8852 1.68622 13.8852Z" fill="black"/>
<path d="M8.23557 35.1239C8.09446 35.1239 7.96618 35.1172 7.85073 35.104C7.73528 35.0907 7.66472 35.0841 7.63907 35.0841C7.65189 35.1106 7.66472 35.1901 7.67755 35.3226C7.70321 35.4684 7.71603 35.6274 7.71603 35.7997V38.6422L5.69563 39V35.7401C5.69563 35.634 5.69563 35.5082 5.69563 35.3624C5.70845 35.2299 5.71487 35.1437 5.71487 35.104C5.67638 35.104 5.58659 35.1106 5.44548 35.1239C5.30437 35.1239 5.15685 35.1239 5.00291 35.1239H0V33.5734L3.94461 24.8868H6.15743L3.07872 31.685C2.86064 32.1886 2.66822 32.5795 2.50146 32.8578C2.33469 33.1228 2.23207 33.2885 2.19359 33.3547C2.23207 33.3415 2.30904 33.3282 2.42449 33.315C2.55277 33.3017 2.67463 33.2951 2.79009 33.2951H5.09912C5.20175 33.2951 5.32361 33.3017 5.46472 33.315C5.61866 33.315 5.72128 33.315 5.77259 33.315C5.74694 33.156 5.73411 32.9903 5.73411 32.818C5.73411 32.6458 5.73411 32.4337 5.73411 32.182C5.74694 31.9302 5.76618 31.6386 5.79184 31.3073C5.83032 30.9628 5.8688 30.552 5.90729 30.0749L6.06122 28.3257L7.71603 27.9083V31.5856C7.71603 32.0362 7.70962 32.4205 7.69679 32.7385C7.68396 33.0566 7.67114 33.2487 7.65831 33.315C7.69679 33.315 7.78659 33.315 7.9277 33.315C8.0688 33.3017 8.19708 33.2951 8.31253 33.2951H9.13994V35.1239H8.23557Z" fill="black"/>
<path d="M18.5285 35.2829H10.8125V33.3349L13.1023 31.8043C14.1542 31.1019 14.9239 30.4924 15.4113 29.9755C15.9116 29.4455 16.1618 28.8823 16.1618 28.2859C16.1618 27.7824 16.0014 27.4047 15.6807 27.1529C15.36 26.9011 14.9303 26.7752 14.3915 26.7752C14.0965 26.7752 13.8078 26.8216 13.5256 26.9144C13.2434 27.0071 12.9804 27.1198 12.7367 27.2523C12.493 27.3848 12.2749 27.524 12.0825 27.6697C11.89 27.8155 11.7361 27.9348 11.6207 28.0275L10.4854 26.7554C11.1781 26.1193 11.8772 25.6422 12.5828 25.3242C13.2883 25.0061 14.0836 24.8471 14.9688 24.8471C15.5075 24.8471 15.995 24.92 16.4311 25.0657C16.8801 25.2115 17.265 25.4235 17.5857 25.7018C17.9064 25.9669 18.1501 26.2915 18.3169 26.6758C18.4965 27.0469 18.5862 27.4709 18.5862 27.948C18.5862 28.8094 18.2463 29.631 17.5664 30.4128C16.8865 31.1814 15.8539 32.0031 14.4685 32.8777L13.3909 33.5535C13.4807 33.5403 13.7052 33.527 14.0644 33.5138C14.4236 33.4873 14.8469 33.474 15.3344 33.474H18.9711L18.5285 35.2829Z" fill="black"/>
<path d="M29.7764 30.2737C29.7764 31.0688 29.6673 31.791 29.4492 32.4404C29.244 33.0897 28.9425 33.6463 28.5449 34.1101C28.16 34.5606 27.6918 34.9118 27.1402 35.1636C26.6014 35.4154 25.9985 35.5413 25.3315 35.5413C24.6388 35.5413 24.0166 35.422 23.465 35.1835C22.9134 34.9317 22.4452 34.5805 22.0603 34.13C21.6883 33.6662 21.3997 33.1096 21.1944 32.4602C20.9892 31.8109 20.8866 31.0821 20.8866 30.2737C20.8866 29.4653 20.9892 28.7365 21.1944 28.0872C21.4125 27.4378 21.714 26.8879 22.0988 26.4373C22.4965 25.9735 22.9647 25.6157 23.5035 25.3639C24.0551 25.1121 24.6644 24.9862 25.3315 24.9862C26.0242 24.9862 26.6463 25.1121 27.1979 25.3639C27.7495 25.6157 28.2113 25.9735 28.5834 26.4373C28.9682 26.8879 29.2632 27.4378 29.4685 28.0872C29.6737 28.7365 29.7764 29.4653 29.7764 30.2737ZM27.4673 30.4128C27.4673 29.684 27.416 29.0744 27.3134 28.5841C27.2236 28.0938 27.0825 27.7029 26.8901 27.4113C26.7105 27.1198 26.486 26.9144 26.2166 26.7951C25.96 26.6758 25.6586 26.6162 25.3122 26.6162C24.5682 26.6162 24.0294 26.921 23.6959 27.5306C23.3624 28.1402 23.1956 29.0082 23.1956 30.1346C23.1956 30.8634 23.2405 31.473 23.3303 31.9633C23.4329 32.4404 23.574 32.8247 23.7536 33.1162C23.946 33.4077 24.1705 33.6131 24.4271 33.7324C24.6965 33.8517 25.0044 33.9113 25.3507 33.9113C26.0947 33.9113 26.6335 33.6131 26.967 33.0168C27.3006 32.4072 27.4673 31.5392 27.4673 30.4128Z" fill="black"/>
</svg>
