<svg width="80" height="80" viewBox="0 0 80 80" fill="none" xmlns="http://www.w3.org/2000/svg">
<path d="M74.6632 51.0092V50.9516C74.6586 50.683 74.6493 50.415 74.6388 50.1431C74.6341 50.122 74.6341 50.1009 74.6341 50.0798C74.6201 49.8118 74.6056 49.5482 74.5817 49.2802C74.5817 49.2671 74.5805 49.254 74.5793 49.2409C74.5782 49.2278 74.577 49.2146 74.577 49.2015L74.5739 49.168C74.551 48.921 74.5277 48.6697 74.4954 48.4231C74.4954 48.395 74.4918 48.3713 74.4878 48.3448L74.4861 48.3335C74.457 48.0757 74.4237 47.8237 74.3853 47.571L74.3827 47.5534C74.3785 47.5241 74.3746 47.4971 74.3707 47.4661C74.3323 47.2192 74.2891 46.9717 74.246 46.7248C74.2367 46.6877 74.2268 46.6461 74.2221 46.609C74.1743 46.3666 74.126 46.1248 74.0735 45.883L74.0665 45.8513L74.0554 45.8012C74.0519 45.7851 74.0484 45.7685 74.045 45.7512C73.992 45.5196 73.9348 45.283 73.8772 45.0514C73.8742 45.0417 73.8714 45.0318 73.8688 45.0217C73.865 45.0073 73.8614 44.9926 73.8579 44.9779C73.852 44.953 73.846 44.9279 73.8387 44.9043C73.781 44.6778 73.7187 44.4521 73.6516 44.2256C73.6377 44.1725 73.6231 44.1201 73.6039 44.0676C73.564 43.9262 73.5204 43.7872 73.4766 43.6476C73.4519 43.569 73.427 43.4896 73.4028 43.41C73.3799 43.3548 73.3613 43.299 73.3428 43.2438L73.3405 43.2367C73.2688 43.0262 73.1971 42.8158 73.1202 42.6054L73.0485 42.416C72.9901 42.2528 72.925 42.0899 72.8588 41.9241L72.8137 41.8109L72.7994 41.7777C72.7753 41.7222 72.7521 41.6685 72.7321 41.6113C72.6775 41.4808 72.6209 41.3506 72.5649 41.222C72.5373 41.1585 72.5096 41.095 72.4827 41.0324L72.4659 40.9958L72.4653 40.9946C72.4375 40.9338 72.4099 40.8736 72.3819 40.8169C72.2956 40.6282 72.2094 40.4439 72.1185 40.2597C72.0921 40.2008 72.0595 40.1391 72.028 40.0794L72.0037 40.0333C71.9433 39.9075 71.88 39.7842 71.8161 39.6596L71.7712 39.5722L71.7356 39.5024L71.7122 39.4603L71.6857 39.4138L71.6686 39.384C71.6459 39.3445 71.6232 39.305 71.6016 39.2657C71.5107 39.0975 71.4198 38.9292 71.319 38.7661C71.2712 38.6817 71.2229 38.5979 71.1704 38.5134L71.0943 38.3869L71.0268 38.2743C70.9789 38.1942 70.9309 38.114 70.8831 38.035C70.8396 37.9713 70.7991 37.9079 70.757 37.8422L70.7153 37.7772C70.6535 37.6871 70.5938 37.5948 70.5335 37.5018C70.4955 37.4431 70.4571 37.3839 70.4181 37.325C70.3954 37.2924 70.3727 37.2605 70.35 37.2289L70.2938 37.1506C70.2729 37.1215 70.252 37.0921 70.2311 37.0621C70.1308 36.9201 70.03 36.778 69.9246 36.636C69.8825 36.5772 69.8389 36.5205 69.7958 36.4646C69.7698 36.4307 69.7435 36.3966 69.7183 36.3629C69.6227 36.2332 69.523 36.1086 69.423 35.9838L69.4065 35.9631C69.3348 35.8685 69.2585 35.7738 69.1816 35.6842C69.1452 35.6408 69.1094 35.5973 69.0736 35.5538C69.0055 35.471 68.9373 35.3881 68.8652 35.3056C68.7836 35.2109 68.702 35.1213 68.6158 35.0267C68.585 34.9915 68.5543 34.9567 68.5236 34.9221L68.4576 34.8479C68.4048 34.7887 68.3521 34.7295 68.2993 34.6691C68.2539 34.6218 68.2083 34.5757 68.1627 34.5297C68.1171 34.4836 68.0715 34.4375 68.026 34.3902C68.0003 34.3632 67.9745 34.3358 67.9487 34.3084L67.9475 34.3072C67.868 34.2228 67.7878 34.1377 67.705 34.0589C67.6094 33.9642 67.5138 33.8695 67.413 33.7748C67.3575 33.7223 67.302 33.6682 67.2458 33.6134C67.1952 33.5641 67.1441 33.5143 67.0919 33.4646C67.0392 33.4173 66.9864 33.3712 66.9337 33.3251C66.881 33.2791 66.8282 33.2331 66.7755 33.1857C66.7324 33.1487 66.69 33.1108 66.6477 33.0731C66.5821 33.0145 66.5168 32.9562 66.4498 32.9017C66.371 32.8325 66.2942 32.77 66.2166 32.7067C66.1765 32.6742 66.1363 32.6414 66.0955 32.6075C65.9947 32.5288 65.8321 32.3977 65.7313 32.3132C65.6786 32.2739 65.6247 32.2332 65.5708 32.1924C65.5169 32.1516 65.463 32.1108 65.4102 32.0714L65.341 32.0189C65.2604 31.9575 65.1811 31.8971 65.099 31.8399C64.9696 31.7467 64.8396 31.658 64.71 31.5696L64.6824 31.5508C64.632 31.5165 64.5829 31.4823 64.5338 31.4481C64.4847 31.4139 64.4356 31.3796 64.3852 31.3454C64.2992 31.2907 64.2116 31.2362 64.1242 31.1818C64.0511 31.1363 63.9781 31.0909 63.9062 31.0454C63.8631 31.0192 63.8211 30.9915 63.7792 30.9639C63.7372 30.9362 63.6953 30.9085 63.6521 30.8823C63.4027 30.7352 63.1492 30.5881 62.8952 30.4461C58.2765 27.922 53.222 27.4115 48.5649 28.6109H48.5602C40.2623 29.9682 30.6176 24.961 30.6176 15.5784C30.6176 12.8381 31.4847 9.05135 34.1536 5.33301C29.6981 8.6618 26.7658 14.2735 26.7658 20.6375C26.7658 27.7166 30.3933 33.8599 35.7112 36.9731C35.8551 37.0576 35.9938 37.1363 36.1424 37.2098C36.157 37.2201 36.171 37.2309 36.1902 37.2361C36.2572 37.2783 36.3248 37.3147 36.3965 37.3518C35.6442 38.4559 34.9688 39.6444 34.389 40.9173C34.202 41.3273 34.0295 41.7431 33.8715 42.1531C33.8361 42.2422 33.8032 42.3298 33.7709 42.416C33.7422 42.4925 33.7138 42.5682 33.6845 42.6425C33.6274 42.7896 33.5697 42.9476 33.5219 43.0998C33.4832 43.2306 33.4407 43.3573 33.3982 43.484C33.3569 43.6071 33.3156 43.7302 33.2778 43.8572C33.1869 44.1521 33.1006 44.4514 33.019 44.7514C32.9852 44.8774 32.952 45.0034 32.9182 45.1352C32.8891 45.2408 32.8605 45.3514 32.8366 45.4563C25.0794 43.8732 16.7861 46.6551 11.1757 53.6082C6.97428 58.815 5.06237 65.3785 5.36422 71.8161C5.5867 71.3811 5.79553 70.7991 6.04533 70.1029C6.68338 68.3247 7.58873 65.8016 9.6717 63.0802C12.9635 58.7888 16.7774 56.6427 20.6915 56.138C26.5899 55.3704 32.3437 58.5521 35.5731 64.0218C37.0824 66.583 39.0659 68.8397 41.4615 70.6225C41.4615 70.6232 41.4616 70.6239 41.4618 70.6245C41.462 70.625 41.4622 70.6254 41.4624 70.6259L41.4638 70.6276C41.465 70.6289 41.4662 70.6301 41.4662 70.6327C41.4972 70.6564 41.5301 70.6781 41.5639 70.7005L41.5874 70.716L41.6194 70.7376C41.902 70.9423 42.1893 71.1425 42.4865 71.337L42.5488 71.3785L42.6278 71.4316C42.6746 71.4631 42.7214 71.4947 42.7691 71.5263C43.1479 71.763 43.5313 71.9945 43.9287 72.2101C52.2226 76.7491 61.9197 74.7822 68.2154 68.0817C63.9179 71.3792 58.1542 72.063 53.1282 69.3124C52.8118 69.1391 52.5052 68.9498 52.2034 68.7553C52.1605 68.7285 52.1179 68.6997 52.0741 68.6701L52.0441 68.6498L51.9971 68.6184C51.7046 68.4239 51.422 68.2186 51.144 68.0031C51.1204 67.9866 51.0988 67.9684 51.0778 67.9508C51.0646 67.9397 51.0516 67.9288 51.0385 67.9186C50.7891 67.719 50.545 67.5137 50.3101 67.2981C50.2813 67.2745 50.2538 67.2495 50.2262 67.2246C50.1987 67.1996 50.1712 67.1747 50.1423 67.151C49.8935 66.9144 49.6441 66.6675 49.4092 66.4148C49.3773 66.3831 49.3474 66.3491 49.3182 66.3159L49.302 66.2975L49.2752 66.2677C49.0643 66.0361 48.8632 65.7994 48.6669 65.5576C48.6284 65.5154 48.5905 65.4681 48.5567 65.4207C48.3411 65.1527 48.1348 64.8738 47.9385 64.5847L47.8091 64.3954C47.6273 64.1171 47.4501 63.8382 47.2823 63.5542C47.2677 63.528 47.2538 63.5069 47.2392 63.4858C47.062 63.1807 46.8989 62.8647 46.7456 62.5493C46.7072 62.4758 46.6739 62.4073 46.6401 62.3338C46.4869 62.0133 46.343 61.6922 46.2089 61.3608L46.2061 61.3545C46.1977 61.3355 46.1892 61.3165 46.1851 61.2975C46.0603 60.9822 45.9455 60.6668 45.8401 60.3457L45.8305 60.3168L45.8151 60.2721C45.7982 60.2231 45.7812 60.174 45.7684 60.125C45.6583 59.7885 45.5621 59.4463 45.4759 59.1047C45.4704 59.0852 45.4657 59.0656 45.4612 59.0457C45.456 59.0227 45.451 58.9994 45.4454 58.9752L45.4374 58.9416C45.3611 58.6314 45.2941 58.3154 45.2364 58.0001C45.2291 57.9684 45.2231 57.9356 45.2171 57.9028C45.2112 57.87 45.2052 57.8372 45.1979 57.8056C45.1402 57.4531 45.0878 57.1007 45.0493 56.7482C45.0394 56.6747 45.0348 56.6062 45.0301 56.5327C44.9969 56.2064 44.973 55.8751 44.9584 55.5438C44.956 55.522 44.9549 55.5003 44.9537 55.4778L44.9528 55.4628C44.9519 55.4464 44.9508 55.4295 44.9491 55.412C44.9352 55.05 44.9397 54.6937 44.9444 54.3323L44.9444 54.3284C44.9468 54.289 44.9479 54.2495 44.9491 54.21C44.9503 54.1705 44.9514 54.1311 44.9538 54.0917C44.9677 53.7233 44.9916 53.3555 45.0254 52.987C45.2125 51.141 45.6961 49.3 46.4916 47.5435C48.5899 42.9207 52.4277 39.881 56.7014 38.8972L56.7477 38.8876C56.8337 38.8696 56.9226 38.851 57.0079 38.8288C60.0649 38.1975 63.3229 38.6184 66.3222 40.2591C71.3481 43.0096 74.3183 48.4685 74.5053 54.2222C74.5292 54.0124 74.5485 53.8071 74.5677 53.5966V53.5915C74.5916 53.3075 74.6108 53.0293 74.63 52.7504V52.7081C74.644 52.4293 74.6539 52.1561 74.6586 51.8772C74.6586 51.8612 74.6632 51.8459 74.6632 51.8299C74.6679 51.5561 74.6679 51.283 74.6632 51.0092Z" fill="#8985E9"/>
<path d="M54.5268 23.2453C53.0686 25.2016 50.7439 26.4743 48.1163 26.4743C43.6978 26.4743 40.1166 22.8923 40.116 18.475C40.116 14.2992 43.3165 10.8745 47.3977 10.5107L47.3997 10.508C47.6365 10.4871 47.8747 10.4743 48.1163 10.4743C52.5348 10.4743 56.116 14.0562 56.116 18.475C56.116 18.728 56.1011 18.9784 56.0782 19.226C56.0737 19.2774 56.0669 19.3285 56.06 19.3797C56.0565 19.4058 56.053 19.432 56.0498 19.4582C56.0289 19.6282 56.0046 19.7963 55.9729 19.9629C55.9567 20.0493 55.9385 20.135 55.9196 20.2207C55.8838 20.3807 55.8427 20.5385 55.7975 20.6951L55.7762 20.7696C55.761 20.8236 55.7458 20.8775 55.7286 20.9306C55.6679 21.1189 55.5998 21.3031 55.5255 21.4853C55.5183 21.503 55.5118 21.5208 55.5053 21.5385C55.4972 21.5608 55.489 21.583 55.4796 21.6048C55.3872 21.8227 55.284 22.034 55.1733 22.2411C55.152 22.2807 55.1292 22.3193 55.1065 22.3577C55.0924 22.3816 55.0783 22.4054 55.0646 22.4294C54.983 22.5725 54.8987 22.7135 54.8082 22.8512C54.7662 22.9151 54.7226 22.9775 54.6788 23.0401L54.6604 23.0664C54.6438 23.0901 54.6278 23.1143 54.6117 23.1384C54.5879 23.1742 54.5641 23.21 54.5383 23.2446C54.5358 23.245 54.5335 23.2452 54.5312 23.2452L54.5268 23.2453Z" fill="#8985E9"/>
<path d="M64.9882 44.4981C59.5852 42.7026 54.3595 45.5905 53.3151 50.9486C58.718 52.7441 63.9443 49.8559 64.9882 44.4981Z" fill="#8985E9"/>
<path d="M10.0516 40.3764C13.6736 44.3823 18.7851 44.2974 21.4694 40.187C17.8473 36.181 12.7352 36.266 10.0516 40.3764Z" fill="#8985E9"/>
<path d="M71.2131 60.5891C64.3918 66.5567 54.2436 65.4028 48.5474 58.0123C55.3691 52.0441 65.5168 53.1975 71.2131 60.5891Z" fill="#8985E9"/>
<path d="M15.5429 21.2431C22.8681 23.6281 27.2655 31.2862 25.3646 38.3471C18.0389 35.962 13.6414 28.3045 15.5429 21.2431Z" fill="#8985E9"/>
</svg>
