<svg width="27" height="30" viewBox="0 0 27 30" fill="none" xmlns="http://www.w3.org/2000/svg">
    <path d="M9.27092 1.295C5.91634 2.49876 3.0553 5.13248 1.4667 8.45291C0.911455 9.60012 0.510447 10.82 0.271385 12.0803C-0.337838 15.215 0.0863047 18.5515 1.4667 21.4115C2.36125 23.2777 3.6491 24.9339 5.20686 26.2265C6.67979 27.4545 8.39179 28.3593 10.2117 28.8683C12.5021 29.5146 14.9467 29.4985 17.2602 28.9491C19.3501 28.4482 21.3243 27.398 22.8975 25.8791C24.5632 24.2714 25.7508 22.1628 26.3831 19.8926C27.0695 17.4124 27.162 14.7706 26.7302 12.2338C22.4116 12.2338 18.0931 12.2338 13.7668 12.2338C13.7668 14.1081 13.7668 15.9905 13.7668 17.8648C16.2654 17.8648 18.7717 17.8648 21.2703 17.8648C20.9773 19.6664 19.9593 21.3065 18.5095 22.3244C17.5995 22.9626 16.5585 23.3827 15.4788 23.5766C14.3915 23.7705 13.2733 23.7948 12.1936 23.5685C11.0909 23.3423 10.0421 22.8576 9.1244 22.179C7.65918 21.1045 6.54098 19.521 5.97032 17.7517C5.38423 15.9501 5.37652 13.9385 5.97032 12.1369C6.37904 10.8685 7.06538 9.68899 7.96765 8.73567C9.07813 7.54 10.5202 6.69171 12.078 6.34432C13.4121 6.0454 14.8156 6.10195 16.1189 6.51397C17.2294 6.86945 18.2473 7.4996 19.0879 8.33981C19.9362 7.45921 20.7768 6.57053 21.625 5.68993C22.0646 5.21327 22.535 4.76085 22.9669 4.26804C21.6867 3.02389 20.1752 2.0221 18.5327 1.39195C15.5868 0.236664 12.2476 0.212427 9.27092 1.295Z" fill="white"/>
    <path d="M9.271 1.29496C12.2477 0.212383 15.5869 0.23662 18.5482 1.38382C20.1907 2.01398 21.6945 3.01576 22.9824 4.25991C22.5505 4.74465 22.0878 5.20515 21.6405 5.6818C20.7923 6.5624 19.9517 7.45108 19.1034 8.33168C18.2628 7.49148 17.2449 6.85324 16.1344 6.50585C14.8311 6.09383 13.4276 6.03727 12.0935 6.33619C10.5357 6.68359 9.09363 7.53995 7.98315 8.72755C7.08088 9.68086 6.39454 10.8604 5.98582 12.1288C4.48204 10.9089 2.97827 9.68086 1.47449 8.46095C3.05538 5.13244 5.91642 2.49871 9.271 1.29496Z" fill="#E94435"/>
    <path d="M0.271385 12.0803C0.510447 10.82 0.919166 9.60009 1.4667 8.45288C2.97047 9.6728 4.47425 10.9008 5.97803 12.1207C5.38423 13.9223 5.39194 15.9339 5.97803 17.7355C4.47425 18.9555 2.97047 20.1835 1.4667 21.4034C0.0863047 18.5596 -0.337838 15.2149 0.271385 12.0803Z" fill="#F8BB15"/>
    <path d="M13.7746 12.2258C18.0932 12.2258 22.4117 12.2258 26.738 12.2258C27.1698 14.7626 27.0773 17.4044 26.3909 19.8846C25.7586 22.1548 24.571 24.2715 22.9052 25.8711C21.4477 24.6835 19.9825 23.4959 18.5327 22.3083C19.9825 21.2984 21.0005 19.6503 21.2935 17.8487C18.7949 17.8487 16.2886 17.8487 13.79 17.8487C13.7669 15.9825 13.7746 14.1082 13.7746 12.2258Z" fill="#547DBE"/>
    <path d="M1.46667 21.4115C2.97045 20.1916 4.47423 18.9636 5.97801 17.7437C6.54867 19.521 7.66687 21.0964 9.13209 22.1709C10.0498 22.8495 11.0986 23.3262 12.2013 23.5605C13.281 23.7867 14.4069 23.7624 15.4865 23.5685C16.5662 23.3747 17.6072 22.9545 18.5172 22.3163C19.9747 23.5039 21.4399 24.6915 22.8897 25.8791C21.3165 27.406 19.3424 28.4482 17.2525 28.9491C14.9467 29.4985 12.5021 29.5146 10.204 28.8683C8.38406 28.3593 6.67206 27.4545 5.19913 26.2265C3.64908 24.9258 2.36123 23.2696 1.46667 21.4115Z" fill="#34A751"/>
</svg>
